<svg width="120" height="60" viewBox="0 0 120 60" fill="none" xmlns="http://www.w3.org/2000/svg">
  <rect width="120" height="60" rx="8" fill="white"/>
  <path d="M60 15C51.7157 15 45 21.7157 45 30C45 38.2843 51.7157 45 60 45C68.2843 45 75 38.2843 75 30H60V15Z" fill="#047857"/>
  <path d="M60 15V30H75C75 21.7157 68.2843 15 60 15Z" fill="#10B981"/>
  <path d="M30 15L37.3205 27.5H22.6795L30 15Z" fill="#047857"/>
  <path d="M30 45L22.6795 32.5H37.3205L30 45Z" fill="#047857"/>
  <path d="M90 15L97.3205 27.5H82.6795L90 15Z" fill="#047857"/>
  <path d="M90 45L82.6795 32.5H97.3205L90 45Z" fill="#047857"/>
</svg> 