<svg width="120" height="60" viewBox="0 0 120 60" fill="none" xmlns="http://www.w3.org/2000/svg">
  <rect width="120" height="60" rx="8" fill="white"/>
  <path d="M23 30C23 25.0294 27.0294 21 32 21H88C92.9706 21 97 25.0294 97 30C97 34.9706 92.9706 39 88 39H32C27.0294 39 23 34.9706 23 30Z" fill="#14B8A6"/>
  <path d="M32 25.5C32 23.567 33.567 22 35.5 22H84.5C86.433 22 88 23.567 88 25.5C88 27.433 86.433 29 84.5 29H35.5C33.567 29 32 27.433 32 25.5Z" fill="white"/>
  <path d="M32 34.5C32 32.567 33.567 31 35.5 31H74.5C76.433 31 78 32.567 78 34.5C78 36.433 76.433 38 74.5 38H35.5C33.567 38 32 36.433 32 34.5Z" fill="white"/>
</svg> 